<svg id="visual" viewBox="0 0 960 540" width="960" height="540" xmlns="http://www.w3.org/2000/svg" xmlns:xlink="http://www.w3.org/1999/xlink" version="1.1"><rect x="0" y="0" width="960" height="540" fill="#002233"></rect><path d="M0 297L12.3 303.2C24.7 309.3 49.3 321.7 74 331.8C98.7 342 123.3 350 148 346.2C172.7 342.3 197.3 326.7 221.8 321.3C246.3 316 270.7 321 295.2 342.8C319.7 364.7 344.3 403.3 369 414.2C393.7 425 418.3 408 443 387.5C467.7 367 492.3 343 517 340.5C541.7 338 566.3 357 591 351C615.7 345 640.3 314 664.8 312.7C689.3 311.3 713.7 339.7 738.2 353.7C762.7 367.7 787.3 367.3 812 362.5C836.7 357.7 861.3 348.3 886 359.5C910.7 370.7 935.3 402.3 947.7 418.2L960 434L960 541L947.7 541C935.3 541 910.7 541 886 541C861.3 541 836.7 541 812 541C787.3 541 762.7 541 738.2 541C713.7 541 689.3 541 664.8 541C640.3 541 615.7 541 591 541C566.3 541 541.7 541 517 541C492.3 541 467.7 541 443 541C418.3 541 393.7 541 369 541C344.3 541 319.7 541 295.2 541C270.7 541 246.3 541 221.8 541C197.3 541 172.7 541 148 541C123.3 541 98.7 541 74 541C49.3 541 24.7 541 12.3 541L0 541Z" fill="#0066FF" stroke-linecap="round" stroke-linejoin="miter"></path></svg>